<?xml version="1.0" encoding="UTF-8" ?>
<!DOCTYPE svg PUBLIC "-//W3C//DTD SVG 1.1//EN" "http://www.w3.org/Graphics/SVG/1.1/DTD/svg11.dtd">
<svg width="255pt" height="533pt" viewBox="0 0 255 533" version="1.1" xmlns="http://www.w3.org/2000/svg">
<!-- <path fill="#ffffff" d=" M 0.00 0.00 L 255.00 0.00 L 255.00 533.00 L 0.00 533.00 L 0.00 0.00 Z" /> -->
<path fill="#020202" d=" M 118.96 38.64 C 125.15 37.82 131.44 37.92 137.65 38.33 C 146.36 40.01 154.82 42.81 163.16 45.78 C 169.66 48.09 174.52 53.11 180.29 56.66 C 192.75 65.69 205.76 75.88 211.11 90.89 C 215.85 91.39 218.56 95.48 222.53 97.58 C 226.54 99.97 227.29 105.23 230.93 108.03 C 234.78 111.33 239.41 114.66 240.20 120.06 C 240.21 124.05 237.10 126.92 234.83 129.84 C 231.85 136.34 231.54 143.80 228.35 150.22 C 224.74 155.22 220.97 160.23 216.26 164.26 C 211.99 167.40 205.85 169.50 204.37 175.15 C 202.57 181.53 199.33 187.35 196.13 193.11 C 195.42 194.60 193.67 195.94 194.28 197.77 C 195.23 200.62 196.34 203.49 198.25 205.85 C 200.53 208.51 199.26 212.37 200.73 215.36 C 204.16 222.01 205.37 229.58 204.88 237.01 C 205.97 249.31 204.89 261.67 205.84 273.96 C 205.65 285.69 206.90 297.35 206.95 309.07 C 207.52 313.31 208.15 317.57 207.77 321.87 C 206.70 330.23 207.46 338.66 207.15 347.05 C 205.93 357.76 204.63 368.48 203.34 379.19 C 202.72 387.83 200.06 396.14 198.80 404.68 C 197.67 412.46 195.47 420.07 195.16 427.97 C 193.64 438.06 193.29 448.39 190.45 458.24 C 189.80 461.27 189.18 464.98 191.57 467.45 C 195.76 471.94 199.11 478.11 205.64 479.40 C 209.95 481.53 215.06 481.66 218.74 485.02 C 214.08 489.35 206.80 488.19 201.68 485.36 C 198.22 484.52 194.47 484.54 191.34 482.64 C 185.74 479.49 178.57 483.25 173.35 479.21 C 174.16 475.02 176.09 471.15 176.77 466.94 C 178.26 460.85 178.46 454.51 180.39 448.52 C 183.17 431.41 184.11 414.09 186.94 397.00 C 188.91 378.39 187.83 359.66 188.14 340.99 C 188.89 328.00 188.05 314.98 187.15 302.01 C 186.60 293.66 186.36 284.92 182.52 277.29 C 180.45 272.08 181.96 266.21 179.92 260.98 C 178.46 257.58 179.41 253.61 177.53 250.38 C 174.20 244.36 172.84 237.20 167.86 232.18 C 165.50 230.08 162.08 230.28 159.30 231.34 C 154.67 233.30 150.00 235.46 145.00 236.26 C 135.05 236.49 124.67 236.69 115.31 232.77 C 113.42 231.99 111.35 232.14 109.35 232.11 C 105.11 237.55 104.33 244.72 100.47 250.39 C 97.57 254.84 96.70 260.15 95.19 265.14 C 91.02 277.29 91.95 290.33 91.57 302.96 C 90.60 308.95 90.68 315.00 90.72 321.05 C 90.87 325.74 89.28 330.28 89.72 334.99 C 90.10 346.71 88.94 358.52 90.61 370.16 C 90.92 376.45 90.40 382.79 91.50 389.04 C 92.10 404.06 90.83 419.18 92.68 434.14 C 92.97 444.44 94.55 454.67 94.20 465.00 C 93.91 470.09 94.84 475.99 91.25 480.17 C 88.60 483.21 85.86 486.56 81.88 487.87 C 77.37 489.37 73.35 491.94 69.27 494.33 C 66.67 495.20 63.67 496.31 60.96 495.25 C 58.57 494.39 56.07 493.91 53.66 493.09 C 54.62 491.10 56.45 489.96 58.52 489.39 C 62.73 488.06 65.60 484.56 69.17 482.16 C 72.80 479.77 75.81 476.20 76.94 471.94 C 80.19 461.64 79.36 450.61 78.24 440.03 C 78.62 433.65 77.20 427.41 76.94 421.06 C 75.99 415.35 76.43 409.53 75.29 403.85 C 75.17 393.52 74.60 383.19 74.66 372.85 C 73.68 360.55 70.74 348.39 71.19 335.99 C 71.12 327.05 70.63 318.12 69.68 309.23 C 68.70 301.46 69.97 293.54 68.18 285.85 C 67.24 273.47 67.99 260.99 69.71 248.71 C 70.57 240.60 71.27 232.43 73.57 224.57 C 75.46 218.25 74.61 211.35 77.29 205.25 C 78.81 202.34 76.06 199.59 74.88 197.08 C 69.90 189.80 67.24 181.37 64.85 172.98 C 61.56 176.64 60.29 181.54 57.60 185.60 C 54.04 190.66 50.08 195.41 46.21 200.23 C 42.10 205.05 42.06 212.14 37.73 216.79 C 33.79 219.43 28.07 215.94 27.55 211.47 C 26.64 205.21 27.61 198.91 28.51 192.71 C 23.89 193.78 18.95 195.01 14.36 193.07 C 15.03 190.62 16.91 188.89 19.31 188.19 C 23.77 186.77 28.25 185.33 32.86 184.47 C 34.45 179.59 35.32 174.46 37.83 169.91 C 41.46 162.70 44.65 155.27 47.64 147.77 C 49.10 142.42 50.54 137.07 51.63 131.63 C 55.14 120.74 60.99 110.77 67.26 101.26 C 69.30 99.20 69.83 96.28 70.56 93.60 C 73.20 82.17 77.86 71.21 84.35 61.43 C 86.27 58.85 88.90 56.94 91.14 54.66 C 83.70 59.15 76.80 64.50 70.85 70.85 C 76.47 63.88 82.21 56.69 90.02 52.02 C 95.20 49.00 100.22 45.69 105.62 43.06 C 96.80 44.70 87.90 46.72 79.93 50.99 C 75.70 53.41 73.03 57.54 69.62 60.87 C 71.03 54.82 75.78 49.92 81.31 47.34 C 88.97 44.26 96.77 41.45 104.84 39.60 C 109.49 38.65 114.26 39.16 118.96 38.64 Z" />
<path fill="#ffffff" d=" M 107.35 46.30 C 118.38 40.52 131.63 41.90 143.25 45.04 C 152.38 46.18 161.92 47.87 169.46 53.53 C 174.35 57.95 178.12 63.45 183.00 67.90 C 179.17 65.05 175.48 62.00 171.27 59.71 C 161.59 54.56 151.64 49.79 141.09 46.73 C 134.90 44.83 128.37 45.38 122.00 45.34 C 117.07 45.18 112.28 47.40 107.35 46.30 Z" />
<path fill="#ffffff" d=" M 147.57 52.82 C 154.03 54.84 160.11 57.85 166.11 60.94 C 178.27 66.65 188.80 76.50 194.06 88.99 C 196.83 95.66 199.38 102.62 199.65 109.92 C 199.98 119.60 199.74 129.67 195.61 138.63 C 192.31 145.67 188.18 152.32 183.43 158.47 C 181.25 161.26 179.30 164.38 176.25 166.32 C 173.50 167.91 172.46 171.12 170.12 173.14 C 162.15 180.51 152.25 185.51 141.96 188.77 C 139.42 189.65 136.69 189.49 134.05 189.54 C 128.84 189.51 123.51 189.88 118.49 188.20 C 110.39 185.68 102.70 181.36 96.92 175.09 C 87.13 165.40 77.02 154.31 75.12 140.09 C 73.74 134.42 75.49 128.71 75.46 123.00 C 75.69 114.03 78.34 105.40 80.08 96.66 C 78.78 105.33 79.05 114.19 79.45 122.92 C 81.82 133.38 87.17 143.53 95.60 150.35 C 104.34 157.01 114.56 161.54 125.09 164.52 C 129.94 166.02 135.07 165.42 140.07 165.56 C 146.60 165.88 152.62 162.50 157.78 158.83 C 163.72 154.21 169.42 148.91 172.99 142.19 C 178.46 131.66 181.94 119.94 181.83 108.00 C 182.71 99.29 182.36 90.18 178.83 82.04 C 175.21 72.55 167.25 65.61 159.29 59.71 C 155.73 56.85 151.52 55.04 147.57 52.82 Z" />
<path fill="#ffffff" d=" M 145.02 55.62 C 153.97 58.93 161.64 64.98 168.23 71.76 C 175.01 78.65 178.92 88.28 178.79 97.94 C 178.74 108.16 178.70 118.62 175.30 128.39 C 172.84 135.35 170.13 142.52 164.96 147.98 C 158.91 154.51 151.52 160.48 142.62 162.35 C 136.80 162.48 130.83 162.93 125.17 161.23 C 116.09 158.57 107.29 154.73 99.49 149.33 C 90.59 143.24 85.16 133.19 82.56 122.95 C 81.83 115.27 82.20 107.52 82.61 99.83 C 82.93 99.31 83.58 98.26 83.90 97.73 C 85.24 101.08 86.56 104.47 88.72 107.39 C 93.24 113.74 97.07 120.75 103.01 125.94 C 108.03 129.94 114.57 131.90 120.96 131.66 C 126.86 131.51 133.14 132.50 138.59 129.63 C 146.51 126.39 151.84 119.31 156.32 112.33 C 161.48 103.18 165.31 92.06 162.30 81.60 C 157.58 72.34 152.13 63.27 145.02 55.62 Z" />
<path fill="#ffffff" d=" M 185.50 64.98 C 193.04 70.11 199.80 76.57 204.65 84.33 C 210.02 93.70 210.40 104.76 212.23 115.15 C 212.32 118.45 213.32 121.64 213.46 124.92 C 212.42 127.45 210.63 129.54 208.71 131.44 C 206.90 120.02 208.41 108.04 204.13 97.05 C 199.65 85.49 193.49 74.48 185.50 64.98 Z" />
<path fill="#ffffff" d=" M 98.73 79.58 C 100.77 76.69 102.93 73.48 106.28 72.03 C 106.80 77.04 106.62 82.59 103.22 86.63 C 101.23 86.40 98.76 87.09 97.46 85.10 C 97.24 83.15 97.51 81.18 98.73 79.58 Z" />
<path fill="#ffffff" d=" M 128.40 76.23 C 129.99 76.31 131.62 76.29 133.18 76.71 C 135.69 79.56 134.49 83.63 134.74 87.08 C 135.06 89.60 133.57 91.65 132.21 93.59 C 129.32 93.77 126.48 93.30 124.37 91.16 C 124.15 85.90 125.65 80.70 128.40 76.23 Z" />
<path fill="#ffffff" d=" M 157.50 77.98 C 162.35 85.65 160.58 95.40 157.58 103.43 C 153.30 113.52 146.55 123.80 135.84 127.75 C 130.93 129.90 125.48 129.47 120.27 129.30 C 114.90 128.72 109.30 127.58 104.97 124.14 C 100.70 120.51 97.45 115.86 94.49 111.15 C 99.13 113.22 103.49 115.99 108.45 117.28 C 113.25 118.50 117.87 120.81 122.93 120.66 C 126.76 120.54 130.73 121.28 134.47 120.26 C 140.79 117.05 145.89 111.85 150.46 106.52 C 155.31 100.70 155.31 92.85 157.02 85.85 C 157.48 83.25 157.23 80.59 157.50 77.98 Z" />
<path fill="#ffffff" d=" M 74.50 100.93 C 74.64 94.73 76.65 88.81 78.25 82.88 C 78.27 86.25 78.93 89.76 77.74 93.02 C 76.05 98.33 74.89 103.78 73.42 109.15 C 73.72 106.40 74.52 103.71 74.50 100.93 Z" />
<path fill="#ffffff" d=" M 212.44 92.81 C 215.42 94.25 217.61 96.82 220.54 98.34 C 224.92 100.68 225.96 106.16 229.72 109.21 C 233.32 112.25 236.94 115.45 238.59 120.02 C 237.64 123.28 235.47 125.85 233.38 128.42 C 230.01 134.73 229.73 142.16 226.90 148.66 C 223.46 153.84 219.51 158.80 214.82 162.91 C 210.31 165.92 204.98 167.98 201.73 172.57 C 201.63 178.53 199.27 184.08 195.93 188.92 C 192.16 192.18 187.32 195.54 182.06 194.06 C 179.38 193.50 178.00 190.92 176.24 189.09 C 178.71 183.94 180.61 177.95 185.52 174.56 C 186.67 173.82 187.08 172.49 187.66 171.33 C 184.78 172.77 180.25 173.08 180.06 168.76 C 183.50 168.51 186.96 168.37 190.41 168.63 C 192.55 163.42 194.79 158.26 197.02 153.09 C 201.30 146.79 205.57 140.39 210.90 134.90 C 213.78 132.62 216.93 130.26 220.75 130.11 C 223.27 127.96 225.66 125.54 227.16 122.55 C 223.72 124.10 220.05 123.56 216.41 123.35 C 216.05 113.06 213.85 102.97 212.44 92.81 Z" />
<path fill="#ffffff" d=" M 56.89 125.14 C 59.44 118.02 63.46 111.57 66.77 104.80 C 65.94 121.67 59.15 138.01 60.83 155.06 C 61.55 160.49 64.93 166.91 60.74 171.72 C 58.03 175.00 56.95 179.14 55.02 182.83 C 51.93 186.54 47.92 189.51 45.92 194.06 C 41.12 200.69 40.63 209.62 35.11 215.77 C 33.49 214.52 31.51 213.46 30.64 211.51 C 30.13 204.53 30.20 197.51 31.63 190.64 C 26.61 188.91 22.35 193.44 17.33 192.20 C 20.37 188.35 25.68 189.76 29.60 187.58 C 31.87 186.46 34.35 185.74 36.45 184.30 C 39.14 179.99 38.97 174.65 40.98 170.07 C 43.83 163.28 46.87 156.58 49.63 149.75 C 52.54 141.69 53.50 133.04 56.89 125.14 Z" />
<path fill="#ffffff" d=" M 66.02 129.60 C 67.11 121.45 69.44 113.53 70.08 105.33 C 71.07 115.85 69.81 126.47 70.83 137.00 C 71.73 141.13 71.18 145.38 71.79 149.54 C 73.41 157.91 76.24 165.98 79.16 173.97 C 81.69 181.07 85.80 187.52 91.26 192.73 C 98.03 199.01 104.07 206.21 112.11 210.96 C 119.74 215.99 129.12 217.19 138.06 217.28 C 145.38 217.42 151.77 213.40 157.96 210.01 C 165.12 206.00 171.27 200.45 178.28 196.24 C 182.15 196.48 186.02 196.93 189.91 196.50 C 182.38 206.87 174.92 217.78 164.08 224.99 C 159.46 227.60 154.75 230.11 149.66 231.68 C 142.73 234.35 135.21 232.93 128.02 232.56 C 121.48 232.31 115.17 229.85 109.89 226.05 C 103.42 221.44 96.49 217.54 89.99 213.00 C 83.43 207.91 80.48 199.87 75.83 193.25 C 69.68 184.12 69.05 172.80 64.44 163.01 C 64.34 151.87 63.29 140.53 66.02 129.60 Z" />
<path fill="#ffffff" d=" M 203.45 111.54 C 203.07 119.60 205.12 127.55 204.76 135.60 C 201.07 141.26 197.20 146.82 193.16 152.23 C 191.38 156.28 189.49 160.32 188.36 164.61 C 186.43 164.93 184.49 165.29 182.55 165.53 C 190.13 154.94 198.48 144.26 201.59 131.34 C 203.38 124.88 202.27 118.09 203.45 111.54 Z" />
<path fill="#ffffff" d=" M 77.00 155.85 C 82.16 164.44 88.93 171.94 96.01 178.99 C 102.78 185.33 111.22 189.93 120.25 192.07 C 127.71 193.26 135.39 193.72 142.80 191.97 C 154.74 188.31 165.96 182.10 174.95 173.39 C 176.85 173.81 178.76 174.24 180.67 174.61 C 178.66 178.90 175.67 182.72 174.13 187.21 C 173.04 189.52 174.58 191.82 175.40 193.94 C 164.89 201.02 154.87 209.48 142.61 213.37 C 134.46 213.81 125.93 213.96 118.32 210.53 C 112.72 207.86 107.71 204.05 103.29 199.72 C 96.26 193.00 88.34 186.61 84.31 177.51 C 81.28 170.51 78.60 163.32 77.00 155.85 Z" />
<path fill="#ffffff" d=" M 173.98 221.03 C 182.10 215.41 186.72 206.37 192.87 198.91 C 193.79 201.83 194.92 204.69 196.67 207.21 C 198.35 209.35 197.12 212.32 198.25 214.68 C 201.02 220.34 203.09 226.58 202.64 232.96 C 202.28 239.33 203.71 245.62 203.37 252.00 C 203.08 268.01 204.10 283.99 204.67 299.98 C 204.46 307.97 206.36 315.86 205.61 323.87 C 204.70 333.61 206.27 343.48 204.57 353.15 C 203.54 364.12 202.10 375.05 200.85 385.99 C 199.13 394.33 197.46 402.69 196.08 411.11 C 194.33 417.35 193.99 423.83 193.25 430.24 C 191.93 438.58 191.48 447.07 189.56 455.31 C 188.61 459.40 188.40 463.61 188.13 467.79 C 190.23 470.91 192.58 473.99 195.50 476.41 C 201.92 480.06 208.56 483.33 215.75 485.13 C 212.03 485.73 207.93 486.45 204.39 484.74 C 199.84 482.74 194.67 482.44 190.48 479.62 C 185.37 478.80 180.18 478.90 175.03 478.66 C 177.70 471.29 179.73 463.70 180.60 455.89 C 185.19 437.23 185.23 417.84 188.61 398.97 C 189.84 392.05 189.45 384.98 190.21 378.01 C 189.90 348.93 191.58 319.72 187.97 290.79 C 187.49 287.19 186.59 283.63 186.53 279.99 C 186.44 273.38 184.96 266.89 183.70 260.44 C 182.06 254.99 179.33 249.95 177.08 244.74 C 175.50 240.52 173.61 236.40 171.51 232.42 C 170.06 230.71 167.79 229.99 165.92 228.87 C 168.79 226.45 171.15 223.49 173.98 221.03 Z" />
<path fill="#ffffff" d=" M 78.93 205.84 C 82.28 209.53 84.90 214.00 89.23 216.70 C 92.89 218.99 96.54 221.34 99.69 224.33 C 102.87 226.01 106.15 227.51 109.04 229.70 C 106.65 232.12 104.08 234.42 102.31 237.36 C 99.78 240.88 99.86 245.66 97.05 249.02 C 95.79 250.55 93.72 251.79 93.74 254.03 C 93.76 258.00 91.93 261.62 91.43 265.51 C 90.94 268.70 90.26 271.86 89.74 275.04 C 89.04 283.01 89.77 291.05 88.72 299.00 C 89.36 308.62 90.08 318.38 88.68 327.98 C 88.54 340.99 88.66 354.00 88.58 367.01 C 88.37 372.03 89.69 376.96 89.39 381.99 C 89.81 395.60 89.34 409.23 89.63 422.84 C 91.01 428.79 90.04 434.96 91.17 440.96 C 91.53 450.83 93.21 460.66 92.15 470.55 C 91.50 473.57 91.96 477.09 89.46 479.39 C 86.70 483.99 80.77 483.80 76.80 486.78 C 74.43 488.51 71.94 490.05 69.35 491.44 C 66.05 493.42 62.03 492.49 58.42 492.17 C 63.30 490.04 67.48 486.77 71.92 483.91 C 75.34 480.78 79.57 477.29 79.50 472.20 C 81.49 460.92 80.61 449.38 80.39 437.98 C 80.60 432.97 79.36 428.07 79.17 423.07 C 78.02 417.87 78.86 412.47 77.72 407.27 C 76.78 401.39 77.85 395.39 76.82 389.52 C 75.99 380.83 77.57 371.99 75.74 363.40 C 75.03 357.27 74.25 351.15 73.57 345.02 C 73.17 335.01 73.89 324.95 72.52 315.00 C 71.39 307.37 71.62 299.65 71.42 291.95 C 69.58 281.62 70.46 271.02 70.66 260.58 C 72.44 248.27 72.75 235.78 76.07 223.75 C 77.46 217.84 77.16 211.67 78.93 205.84 Z" />
</svg>
